<?xml version="1.0" encoding="UTF-8" standalone="no"?>
<!-- Generator: Adobe Illustrator 26.5.0, SVG Export Plug-In . SVG Version: 6.00 Build 0)  -->

<svg
   version="1.0"
   id="katman_1"
   x="0px"
   y="0px"
   viewBox="0 0 452 352"
   style="enable-background:new 0 0 452 352;"
   xml:space="preserve"
   sodipodi:docname="nasm.svg"
   inkscape:version="1.3 (0e150ed6c4, 2023-07-21)"
   xmlns:inkscape="http://www.inkscape.org/namespaces/inkscape"
   xmlns:sodipodi="http://sodipodi.sourceforge.net/DTD/sodipodi-0.dtd"
   xmlns="http://www.w3.org/2000/svg"
   xmlns:svg="http://www.w3.org/2000/svg"><defs
   id="defs2" /><sodipodi:namedview
   id="namedview2"
   pagecolor="#ffffff"
   bordercolor="#000000"
   borderopacity="0.25"
   inkscape:showpageshadow="2"
   inkscape:pageopacity="0.0"
   inkscape:pagecheckerboard="0"
   inkscape:deskcolor="#d1d1d1"
   inkscape:zoom="1.6150962"
   inkscape:cx="243.94832"
   inkscape:cy="209.27546"
   inkscape:window-width="1920"
   inkscape:window-height="1008"
   inkscape:window-x="0"
   inkscape:window-y="0"
   inkscape:window-maximized="1"
   inkscape:current-layer="katman_1" />&#10;<style
   type="text/css"
   id="style1">&#10;	.st0{fill:#113B6A;}&#10;	.st1{fill:#FFFFFF;}&#10;</style>&#10;<g
   id="g2"
   transform="matrix(1.3300813,0,0,1.3300813,-67.312826,-59.48028)">&#10;	<path
   class="st0"
   d="m 328.45,48 c -14.12,0 -25.56,11.44 -25.56,25.55 0,4.96 1.44,9.58 3.88,13.5 L 290.5,103.32 C 270.06,84.82 242.96,73.55 213.22,73.55 149.59,73.55 98,125.15 98,188.78 98,252.42 149.59,304 213.22,304 c 63.64,0 115.22,-51.59 115.22,-115.22 0,-29.74 -11.27,-56.84 -29.77,-77.28 l 16.27,-16.27 c 3.92,2.45 8.54,3.88 13.5,3.88 14.11,0 25.55,-11.44 25.55,-25.55 C 353.99,59.45 342.56,48 328.45,48 Z"
   id="path1" />&#10;	<path
   class="st1"
   d="m 159.57,208.18 c -0.18,0.33 -0.62,0.5 -1.34,0.5 h -8.42 c -1.12,0 -1.68,-0.54 -1.68,-1.61 0,-2.25 0,-4.48 0.02,-6.7 l 0.02,-3.32 c 0.03,-3.31 0.04,-6.66 0.04,-10.03 0,-2.14 -0.37,-3.66 -1.11,-4.55 -0.74,-0.89 -1.93,-1.34 -3.56,-1.34 -1.22,0 -2.55,0.29 -3.98,0.88 -1.43,0.59 -2.6,1.04 -3.52,1.34 v 23.73 c 0,0.41 -0.09,0.78 -0.27,1.11 -0.18,0.33 -0.62,0.5 -1.34,0.5 h -8.34 c -0.66,0 -1.11,-0.14 -1.34,-0.42 -0.23,-0.28 -0.34,-0.68 -0.34,-1.19 v -34.44 c 0,-0.51 0.11,-0.92 0.34,-1.22 0.23,-0.31 0.68,-0.46 1.34,-0.46 h 8.34 c 0.71,0 1.16,0.18 1.34,0.54 0.18,0.36 0.27,0.74 0.27,1.15 v 1.84 c 0.03,0 0.06,0.01 0.08,0.02 l 0.03,0.02 c 0.03,0.03 0.06,0.04 0.12,0.04 1.69,-1.27 3.65,-2.31 5.89,-3.1 2.24,-0.79 4.29,-1.19 6.12,-1.19 2.7,0 4.84,0.45 6.39,1.34 1.56,0.9 2.72,2.07 3.48,3.52 0.77,1.45 1.24,3.08 1.41,4.86 0.18,1.79 0.27,3.57 0.27,5.36 v 21.74 c 0.02,0.37 -0.08,0.74 -0.26,1.08 z m 29.52,-4.1 c -1.02,0.92 -2.12,1.71 -3.29,2.37 -1.17,0.66 -2.37,1.21 -3.6,1.65 -1.23,0.43 -2.42,0.74 -3.6,0.92 -1.17,0.18 -2.24,0.27 -3.21,0.27 -2.25,0 -4.07,-0.32 -5.47,-0.96 -1.4,-0.64 -2.49,-1.47 -3.25,-2.49 -0.77,-1.02 -1.29,-2.21 -1.57,-3.56 -0.24,-1.12 -0.37,-2.3 -0.41,-3.51 l -0.01,-0.74 c -0.05,-2.35 0.27,-4.33 0.96,-5.97 0.69,-1.63 1.67,-2.95 2.95,-3.94 1.27,-0.99 2.83,-1.71 4.67,-2.14 1.84,-0.43 3.88,-0.65 6.12,-0.65 h 8.8 v -1.22 c 0,-0.82 -0.09,-1.51 -0.27,-2.07 -0.18,-0.56 -0.51,-1.02 -0.99,-1.38 -0.49,-0.36 -1.16,-0.62 -2.03,-0.8 -0.76,-0.16 -1.73,-0.25 -2.92,-0.26 h -0.52 c -0.34,0 -0.73,0.01 -1.16,0.03 l -3.58,0.2 v 0 c -0.92,0.05 -1.84,0.13 -2.76,0.23 -0.69,0.08 -1.33,0.14 -1.94,0.19 l -1.25,0.1 c -0.71,0.04 -1.19,0.03 -1.45,-0.05 -0.33,-0.1 -0.6,-0.54 -0.8,-1.3 l -0.84,-3.98 c -0.1,-0.66 -0.01,-1.21 0.27,-1.65 0.28,-0.43 1.01,-0.88 2.18,-1.34 0.87,-0.31 1.87,-0.57 3.02,-0.8 1.15,-0.23 2.32,-0.42 3.52,-0.57 1.2,-0.15 2.39,-0.27 3.56,-0.34 1.17,-0.08 2.19,-0.11 3.06,-0.11 3.57,0 6.44,0.33 8.61,0.99 2.17,0.66 3.83,1.61 4.97,2.83 1.14,1.22 1.9,2.73 2.26,4.52 0.36,1.79 0.54,3.83 0.54,6.12 v 12.09 c 0,0.82 0.04,1.45 0.12,1.91 0.08,0.46 0.22,0.8 0.42,1.03 0.2,0.23 0.48,0.4 0.84,0.5 0.29,0.08 0.65,0.15 1.1,0.2 l 0.35,0.03 c 0.66,0.05 1.1,0.17 1.3,0.34 0.2,0.18 0.31,0.5 0.31,0.96 v 4.9 c 0,0.95 -0.64,1.59 -1.91,1.92 l -0.31,0.07 c -1.43,0.36 -3.01,0.54 -4.75,0.54 -1.89,0 -3.55,-0.32 -4.98,-0.96 -1.43,-0.64 -2.4,-1.98 -2.91,-4.02 z m -1.15,-11.33 h -6.89 c -1.43,0 -2.55,0.33 -3.37,0.99 -0.82,0.66 -1.23,1.89 -1.23,3.68 0,1.17 0.24,1.99 0.73,2.45 0.48,0.46 1.39,0.69 2.72,0.69 1.17,0 2.54,-0.28 4.1,-0.84 1.56,-0.56 2.87,-1.17 3.94,-1.84 z m 50.29,4.01 c 0,2.39 -0.47,4.39 -1.42,5.99 -0.95,1.61 -2.21,2.89 -3.79,3.86 -1.58,0.97 -3.38,1.67 -5.4,2.1 -2.02,0.43 -4.12,0.65 -6.32,0.65 -0.92,0 -1.91,-0.04 -2.98,-0.11 -1.07,-0.08 -2.16,-0.19 -3.25,-0.34 -1.1,-0.15 -2.15,-0.33 -3.14,-0.53 -0.99,-0.2 -1.88,-0.43 -2.64,-0.68 -1.28,-0.46 -2.09,-0.92 -2.45,-1.41 -0.32,-0.43 -0.39,-1.06 -0.23,-1.91 l 0.91,-3.97 c 0.15,-0.71 0.38,-1.15 0.69,-1.3 0.27,-0.13 0.75,-0.15 1.45,-0.05 l 0.31,0.05 c 1.79,0.31 3.72,0.55 5.82,0.73 2.09,0.18 3.8,0.27 5.13,0.27 1.94,0 3.31,-0.22 4.13,-0.65 0.82,-0.44 1.22,-1.16 1.22,-2.19 0,-1.13 -0.31,-1.88 -0.92,-2.26 -0.61,-0.38 -1.74,-0.68 -3.37,-0.88 -2.09,-0.31 -4.04,-0.67 -5.86,-1.07 -1.81,-0.41 -3.41,-1.02 -4.78,-1.84 -1.38,-0.82 -2.46,-1.92 -3.25,-3.3 -0.79,-1.38 -1.19,-3.2 -1.19,-5.45 0,-2.05 0.39,-3.84 1.18,-5.37 0.78,-1.53 1.86,-2.81 3.23,-3.83 1.37,-1.02 3.01,-1.79 4.91,-2.3 1.9,-0.51 3.98,-0.77 6.22,-0.77 0.87,0 1.83,0.04 2.87,0.12 1.05,0.08 2.11,0.18 3.18,0.31 1.07,0.13 2.11,0.3 3.1,0.5 0.99,0.21 1.9,0.46 2.72,0.77 1.02,0.36 1.77,0.73 2.26,1.12 0.48,0.39 0.6,1.07 0.34,2.05 l -0.84,3.94 c -0.2,0.72 -0.42,1.15 -0.65,1.31 -0.2,0.14 -0.66,0.17 -1.37,0.11 l -2.36,-0.28 c -0.25,-0.03 -0.5,-0.06 -0.75,-0.09 -1.02,-0.13 -2.03,-0.23 -3.02,-0.31 l -2.13,-0.15 c -0.22,-0.01 -0.45,-0.03 -0.66,-0.04 l -0.98,-0.05 c -0.15,-0.01 -0.3,-0.01 -0.44,-0.01 l -0.8,-0.01 c -1.94,-0.05 -3.15,0.17 -3.64,0.65 -0.48,0.48 -0.73,1.13 -0.73,1.95 0,0.97 0.45,1.59 1.35,1.87 0.9,0.28 2.04,0.55 3.42,0.8 2,0.26 3.89,0.57 5.69,0.95 1.79,0.38 3.37,1.01 4.72,1.87 1.35,0.86 2.44,2.02 3.27,3.47 0.83,1.4 1.24,3.32 1.24,5.71 z m 61.51,11.42 c -0.18,0.33 -0.6,0.5 -1.26,0.5 h -8.42 c -0.66,0 -1.11,-0.14 -1.34,-0.42 -0.23,-0.28 -0.34,-0.68 -0.34,-1.19 v -20.13 c 0,-2.35 -0.36,-3.9 -1.07,-4.67 -0.71,-0.77 -1.79,-1.15 -3.21,-1.15 -0.92,0 -2.04,0.24 -3.37,0.73 -1.33,0.48 -2.47,0.98 -3.44,1.49 v 23.73 c 0,0.41 -0.09,0.78 -0.27,1.11 -0.18,0.33 -0.62,0.5 -1.34,0.5 h -8.42 c -0.62,0 -1.03,-0.14 -1.26,-0.42 -0.23,-0.28 -0.34,-0.68 -0.34,-1.19 V 186.7 c 0,-2.14 -0.34,-3.61 -1.04,-4.4 -0.7,-0.79 -1.74,-1.19 -3.12,-1.19 -0.93,0 -2.04,0.23 -3.35,0.69 -1.31,0.46 -2.51,0.97 -3.58,1.53 v 23.73 c 0,0.41 -0.1,0.78 -0.31,1.11 -0.2,0.33 -0.66,0.5 -1.37,0.5 h -8.36 c -0.61,0 -1.03,-0.14 -1.26,-0.42 -0.23,-0.28 -0.34,-0.68 -0.34,-1.19 v -34.44 c 0,-0.51 0.11,-0.92 0.34,-1.22 0.23,-0.31 0.65,-0.46 1.26,-0.46 h 8.36 c 0.71,0 1.17,0.18 1.37,0.54 0.2,0.36 0.31,0.74 0.31,1.15 v 1.76 l 0.15,0.08 c 1.63,-1.33 3.42,-2.36 5.36,-3.1 1.94,-0.74 3.9,-1.11 5.9,-1.11 2.3,0 4.31,0.42 6.05,1.26 1.73,0.84 3.01,2.16 3.83,3.94 1.79,-1.48 3.81,-2.72 6.08,-3.71 2.27,-0.99 4.55,-1.49 6.85,-1.49 2.7,0 4.81,0.45 6.32,1.34 1.5,0.9 2.63,2.06 3.37,3.48 0.74,1.43 1.19,3.04 1.34,4.82 0.15,1.79 0.23,3.57 0.23,5.36 v 21.82 c -0.04,0.39 -0.13,0.76 -0.31,1.1 z"
   id="path2" />&#10;</g>&#10;</svg>
