<?xml version="1.0" encoding="UTF-8" standalone="no"?>
<svg
   height="144"
   width="144"
   version="1.1"
   id="svg2"
   sodipodi:docname="rust-logo-blk.svg"
   inkscape:version="1.3 (0e150ed6c4, 2023-07-21)"
   xmlns:inkscape="http://www.inkscape.org/namespaces/inkscape"
   xmlns:sodipodi="http://sodipodi.sourceforge.net/DTD/sodipodi-0.dtd"
   xmlns="http://www.w3.org/2000/svg"
   xmlns:svg="http://www.w3.org/2000/svg">
  <defs
     id="defs2" />
  <sodipodi:namedview
     id="namedview2"
     pagecolor="#ffffff"
     bordercolor="#000000"
     borderopacity="0.25"
     inkscape:showpageshadow="2"
     inkscape:pageopacity="0.0"
     inkscape:pagecheckerboard="0"
     inkscape:deskcolor="#d1d1d1"
     inkscape:zoom="3.9480129"
     inkscape:cx="98.783873"
     inkscape:cy="75.734302"
     inkscape:window-width="1920"
     inkscape:window-height="1008"
     inkscape:window-x="0"
     inkscape:window-y="0"
     inkscape:window-maximized="1"
     inkscape:current-layer="svg2" />
  <path
     d="m 71.86607,9.8095151 c -34.542772,0 -62.6568238,28.0743549 -62.6568238,62.5388639 0,34.464521 28.1273068,62.538851 62.6568238,62.538851 34.52952,0 62.65681,-28.07433 62.65681,-62.538851 0,-34.464509 -28.12729,-62.5388639 -62.65681,-62.5388639 z m -0.09278,5.5566589 a 4.1090788,4.1145729 0 0 1 4.003038,4.114574 4.1223339,4.1145729 0 0 1 -8.244667,0 4.1223339,4.1145729 0 0 1 4.241629,-4.114574 z m 9.437625,6.773832 a 50.72724,50.631737 0 0 1 34.728335,24.687437 l -4.86463,10.954554 c -0.83506,1.89191 0.0265,4.114573 1.90874,4.961302 l 9.35809,4.141032 a 50.72724,50.631737 0 0 1 0.10602,8.784811 h -5.20925 c -0.51694,0 -0.72902,0.343984 -0.72902,0.846731 v 2.381424 c 0,5.609578 -3.16798,6.839982 -5.95153,7.144275 -2.65104,0.304292 -5.58041,-1.111333 -5.95155,-2.725409 -1.56409,-8.771582 -4.16209,-10.637031 -8.271165,-13.878415 5.103205,-3.228153 10.405235,-8.004234 10.405235,-14.381159 0,-6.892902 -4.73207,-11.232388 -7.953043,-13.36244 -4.533248,-2.976782 -9.543673,-3.572138 -10.895693,-3.572138 H 34.075801 A 50.72724,50.631737 0 0 1 62.454953,22.140006 l 6.349191,6.641529 c 1.431549,1.495005 3.804211,1.561156 5.302036,0.119071 z M 22.623401,52.595782 a 4.1223339,4.1145729 0 0 1 4.003038,4.114573 4.122334,4.114573 0 0 1 -8.244668,0 4.1223339,4.1145729 0 0 1 4.24163,-4.114573 z m 98.286519,0.185223 a 4.1223339,4.1145729 0 0 1 4.00303,4.114572 4.122335,4.114574 0 0 1 -8.24467,0 4.1223339,4.1145729 0 0 1 4.24164,-4.114572 z m -90.519034,0.661507 h 7.184259 V 85.776969 H 23.074074 A 50.72724,50.631737 0 0 1 21.430442,66.447736 l 8.880914,-3.94258 c 1.895477,-0.846729 2.757058,-3.056162 1.908732,-4.948071 z m 29.983017,0.343984 h 17.112326 c 0.888092,0 6.243149,1.01872 6.243149,5.027452 0,3.320763 -4.109079,4.511477 -7.489128,4.511477 h -15.8796 z m 0,23.232121 h 13.109289 c 1.192958,0 6.40221,0.343983 8.059096,6.985514 0.516948,2.037441 1.670142,8.678969 2.452192,10.809022 0.782051,2.381428 3.950017,7.144257 7.330065,7.144257 h 21.393715 a 50.72724,50.631737 0 0 1 -4.6923,5.42436 l -8.708591,-1.86545 c -2.028029,-0.43658 -4.029549,0.85998 -4.466968,2.88418 l -2.067795,9.63156 a 50.72724,50.631737 0 0 1 -42.297001,-0.19847 l -2.067793,-9.63154 C 47.980393,106.17784 45.99213,104.8813 43.9641,105.31787 l -8.523025,1.82577 a 50.72724,50.631737 0 0 1 -4.40069,-5.18623 H 72.48906 c 0.463928,0 0.78205,-0.0793 0.78205,-0.51595 V 86.808919 c 0,-0.423364 -0.318122,-0.515975 -0.78205,-0.515975 H 60.36065 Z M 41.246805,110.53056 a 4.1223339,4.1145729 0 0 1 4.003039,4.11457 4.1223345,4.1145736 0 0 1 -8.244669,0 4.1223339,4.1145729 0 0 1 4.24163,-4.11457 z m 61.039695,0.18521 a 4.1223339,4.1145729 0 0 1 4.00305,4.11459 4.1223389,4.1145779 0 0 1 -8.244669,0 4.1223339,4.1145729 0 0 1 4.241619,-4.11459 z"
     id="path1"
     style="stroke-width:1.32426" />
  <path
     d="M 131.02355,72.348379 A 59.15748,59.046106 0 0 1 71.86607,131.39449 59.15748,59.046106 0 0 1 12.708592,72.348379 59.15748,59.046106 0 0 1 71.86607,13.302273 59.15748,59.046106 0 0 1 131.02355,72.348379 Z m -1.11344,-5.702189 9.22555,5.702189 -9.22555,5.70219 7.92656,7.395646 -10.15341,3.79705 6.33594,8.798044 -10.72337,1.746371 4.50673,9.86968 -10.85592,-0.38368 2.49195,10.55766 -10.57757,-2.48726 0.3844,10.83548 -9.888288,-4.49824 -1.749674,10.70319 -8.814635,-6.32402 -3.804211,10.13429 -7.409597,-7.91163 -5.712945,9.20818 -5.712944,-9.20818 -7.409597,7.91163 -3.804212,-10.13429 -8.814636,6.32402 -1.749674,-10.70319 -9.888299,4.49824 0.384399,-10.83548 -10.577565,2.48726 2.491958,-10.55766 -10.855921,0.38368 4.506732,-9.86968 L 9.7129402,98.041309 16.048875,89.243265 5.8954742,85.446215 13.82202,78.050569 4.5964746,72.348379 13.82202,66.64619 5.8954742,59.250542 16.048875,55.453492 9.7129402,46.655451 20.436311,44.909072 15.929579,35.03939 26.7855,35.423063 24.293542,24.865414 l 10.577565,2.487267 -0.384399,-10.835484 9.888299,4.498246 1.749674,-10.703181 8.814636,6.324006 3.804212,-10.1342864 7.409597,7.9116244 5.712944,-9.2081782 5.712945,9.2081782 7.409597,-7.9116244 3.804211,10.1342864 8.814635,-6.324006 1.749674,10.703181 9.888288,-4.498246 -0.3844,10.835484 10.57757,-2.487267 -2.49195,10.557649 10.85592,-0.383673 -4.50673,9.869682 10.72337,1.746379 -6.33594,8.798041 10.15341,3.79705 z"
     fill-rule="evenodd"
     stroke="#000000"
     stroke-linecap="round"
     stroke-linejoin="round"
     stroke-width="3.34261"
     id="path2" />
</svg>
